<svg version="1.1" id="Uploaded to svgrepo.com" xmlns="http://www.w3.org/2000/svg" xmlns:xlink="http://www.w3.org/1999/xlink" x="0px" y="0px"
	 width="32px" height="32px" viewBox="0 0 32 32" style="enable-background:new 0 0 32 32;" xml:space="preserve">
<style type="text/css">
	.avocado_een{fill:#231F20;}
	.avocado_zeven{fill:#788287;}
	.avocado_acht{fill:#A3AEB5;}
	.avocado_negen{fill:#6F9B45;}
	.avocado_twaalf{fill:#248EBC;}
	.avocado_zeventien{fill:#CC4121;}
	.avocado_twintig{fill:#EAD13F;}
	.st0{fill:#E0A838;}
	.st1{fill:#FFFAEE;}
	.st2{fill:#DBD2C1;}
	.st3{fill:#3D3935;}
	.st4{fill:#E598A3;}
	.st5{fill:#D36781;}
	.st6{fill:#8D3E93;}
	.st7{fill:#BF63C1;}
	.st8{fill:#AF9480;}
	.st9{fill:#716558;}
	.st10{fill:#0E608E;}
	.st11{fill:#D1712A;}
	.st12{fill:#C3CC6A;}
</style>
<g>
	<path class="avocado_zeven" d="M25,26.5c-2.492,0-4.795-1.458-5.866-3.715L18.998,22.5h-5.996l-0.136,0.285
		C11.795,25.042,9.492,26.5,7,26.5c-3.584,0-6.5-2.916-6.5-6.5c0-0.482,0.059-0.979,0.175-1.477l2.104-9.175
		C3.532,7.029,5.626,5.5,8,5.5c1.572,0,3.02,0.651,4.076,1.833L12.226,7.5h7.549l0.149-0.167C20.98,6.151,22.428,5.5,24,5.5
		c2.374,0,4.468,1.529,5.209,3.807l2.115,9.211C31.441,19.019,31.5,19.517,31.5,20C31.5,23.584,28.584,26.5,25,26.5z"/>
	<g>
		<path class="avocado_acht" d="M7,18.5c-0.275,0-0.5-0.225-0.5-0.5v-1.5H5c-0.275,0-0.5-0.225-0.5-0.5v-2
			c0-0.275,0.225-0.5,0.5-0.5h1.5V12c0-0.275,0.225-0.5,0.5-0.5h2c0.275,0,0.5,0.225,0.5,0.5v1.5H11c0.275,0,0.5,0.225,0.5,0.5v2
			c0,0.275-0.225,0.5-0.5,0.5H9.5V18c0,0.275-0.225,0.5-0.5,0.5H7z"/>
	</g>
	<g>
		<circle class="avocado_twintig" cx="25" cy="12" r="1.5"/>
	</g>
	<circle class="avocado_negen" cx="25" cy="17" r="1.5"/>
	<circle class="avocado_zeventien" cx="20" cy="13" r="1.5"/>
	<circle class="avocado_twaalf" cx="20" cy="18" r="1.5"/>
	<path class="avocado_een" d="M31.812,18.406l-2.127-9.255C28.876,6.668,26.592,5,24,5c-1.713,0-3.308,0.723-4.449,2h-7.102
		C11.308,5.723,9.713,5,8,5C5.408,5,3.124,6.668,2.316,9.151L0.188,18.41C0.063,18.942,0,19.479,0,20c0,3.86,3.14,7,7,7
		c2.714,0,5.17-1.581,6.319-4h5.363c1.149,2.419,3.605,4,6.319,4c3.86,0,7-3.14,7-7C32,19.479,31.937,18.942,31.812,18.406z M25,26
		c-2.611,0-4.827-1.671-5.651-4h-6.698c-0.825,2.329-3.04,4-5.651,4c-3.314,0-6-2.686-6-6c0-0.471,0.06-0.927,0.162-1.366
		l2.104-9.173C3.919,7.458,5.779,6,8,6c1.63,0,3.065,0.792,3.977,2h8.045C20.935,6.792,22.37,6,24,6
		c2.221,0,4.081,1.458,4.733,3.461l2.104,9.173C30.94,19.073,31,19.529,31,20C31,23.314,28.314,26,25,26z M20,11
		c-1.105,0-2,0.895-2,2c0,1.105,0.895,2,2,2s2-0.895,2-2C22,11.895,21.105,11,20,11z M20,14c-0.551,0-1-0.449-1-1s0.449-1,1-1
		s1,0.449,1,1S20.551,14,20,14z M25,10c-1.105,0-2,0.895-2,2c0,1.105,0.895,2,2,2s2-0.895,2-2C27,10.895,26.105,10,25,10z M25,13
		c-0.551,0-1-0.449-1-1s0.449-1,1-1s1,0.449,1,1S25.551,13,25,13z M20,16c-1.105,0-2,0.895-2,2c0,1.105,0.895,2,2,2s2-0.895,2-2
		C22,16.895,21.105,16,20,16z M20,19c-0.551,0-1-0.449-1-1s0.449-1,1-1s1,0.449,1,1S20.551,19,20,19z M25,15c-1.105,0-2,0.895-2,2
		c0,1.105,0.895,2,2,2s2-0.895,2-2C27,15.895,26.105,15,25,15z M25,18c-0.551,0-1-0.449-1-1s0.449-1,1-1s1,0.449,1,1
		S25.551,18,25,18z M11,13h-1v-1c0-0.552-0.448-1-1-1H7c-0.552,0-1,0.448-1,1v1H5c-0.552,0-1,0.448-1,1v2c0,0.552,0.448,1,1,1h1v1
		c0,0.552,0.448,1,1,1h2c0.552,0,1-0.448,1-1v-1h1c0.552,0,1-0.448,1-1v-2C12,13.448,11.552,13,11,13z M11,16H9v2H7v-2H5v-2h2v-2h2
		v2h2V16z"/>
</g>
</svg>